<svg xmlns="http://www.w3.org/2000/svg" viewBox="0 0 459.86 77.57"><path d="M205,728.2A35.77,35.77,0,0,0,187,733V728.2l-5.15,6.86A9,9,0,0,0,172,749.88a36,36,0,0,0,15,45.5v4.82h18a36,36,0,0,0,0-72Zm-30,36a29.94,29.94,0,0,1,2.51-12l.49,0h9v36A29.94,29.94,0,0,1,175,764.2Zm30,30v-60a30,30,0,0,1,0,60Z" transform="translate(-169 -728.2)"/><circle cx="86.44" cy="14.56" r="14.56"/><path d="M265.15,796.15V764.77a19.43,19.43,0,0,0-19.42,0V798.4a19.46,19.46,0,0,0,18.35.58,1.62,1.62,0,1,0,1.07-2.83Z" transform="translate(-169 -728.2)"/><circle cx="189.56" cy="14.56" r="14.56"/><path d="M368.27,796.15V764.77a19.43,19.43,0,0,0-19.42,0V798.4a19.46,19.46,0,0,0,18.35.58,1.62,1.62,0,1,0,1.07-2.83Z" transform="translate(-169 -728.2)"/><circle cx="289.47" cy="15.78" r="14.56"/><path d="M468.17,797.37V766a19.41,19.41,0,0,0-19.41,0v33.63a19.44,19.44,0,0,0,18.34.58,1.62,1.62,0,1,0,1.07-2.83Z" transform="translate(-169 -728.2)"/><path d="M508.77,730.22A36.77,36.77,0,0,0,481,791.06l.22.45,9.2,12.26v-4.92a36.78,36.78,0,1,0,18.38-68.63Zm-18.38,65v-6.6A9.2,9.2,0,0,0,477.65,780a33.71,33.71,0,0,1,31.12-46.67V800.7A33.5,33.5,0,0,1,490.39,795.25ZM521,798.4V735.59a33.72,33.72,0,0,1,0,62.81Z" transform="translate(-169 -728.2)"/><path d="M628.84,767.46c0-.19,0-.39,0-.58l0-.54,0-.53c0-.41-.07-.83-.11-1.23v-.07c0-.39-.08-.77-.13-1.16l-.09-.62c0-.16,0-.32-.08-.48s-.05-.34-.08-.5c-.07-.41-.14-.81-.23-1.2a.36.36,0,0,0,0-.1c-.07-.36-.15-.73-.24-1.09,0-.13-.06-.26-.1-.39-.07-.29-.14-.58-.22-.86l-.08-.29c-.11-.39-.22-.78-.34-1.16a.49.49,0,0,0,0-.11c-.1-.35-.22-.69-.34-1l-.15-.44c-.09-.26-.19-.51-.29-.77a2.77,2.77,0,0,0-.1-.26c-.14-.38-.29-.75-.45-1.12l0-.11c-.14-.33-.29-.66-.44-1-.06-.15-.13-.29-.2-.43s-.23-.48-.35-.72a1.63,1.63,0,0,0-.11-.23c-.19-.36-.37-.72-.57-1.07a.39.39,0,0,0-.06-.11c-.17-.32-.34-.63-.53-.94-.08-.14-.17-.28-.25-.43s-.28-.46-.43-.69a1.4,1.4,0,0,0-.1-.16c-.22-.34-.44-.68-.67-1l-.06-.1-.63-.88c-.05-.07-.1-.15-.16-.22-.2-.28-.41-.56-.62-.83a1.13,1.13,0,0,1-.1-.13l-.77-1-.08-.09c-.23-.28-.47-.55-.71-.82a1.54,1.54,0,0,0-.17-.19l-.72-.8-.09-.09c-.28-.3-.57-.59-.86-.89l-.09-.07c-.25-.26-.52-.51-.78-.76l-.18-.17-.83-.75-.06,0-1-.81-.09-.07-.86-.68-.18-.14c-.31-.23-.62-.47-.94-.69l0,0c-.34-.25-.68-.49-1-.72l-.16-.11c-.25-.17-.51-.33-.77-.49l-.29-.18c-.34-.21-.68-.42-1-.62h0v3.95a37,37,0,0,1,16.78,28.88,20.74,20.74,0,0,1-16.73,8.93h0c-9.87,0-20.26-7.81-20.26-20.22,0-8.88-6.42-18.42-16.69-20.21H558a10.09,10.09,0,0,0-6.62,17.6c-.47,1.08-.89,2.17-1.27,3.3h0a39.58,39.58,0,0,0-1.53,6.18l0,.08c-.09.57-.17,1.14-.24,1.72a1.45,1.45,0,0,0-.15,1,2.33,2.33,0,0,1,0,.59q-.06.72-.09,1.47c0,.09,0,.19,0,.29q0,.75,0,1.5c0,.42,0,.84,0,1.26,0,.19,0,.39,0,.58l0,.54,0,.53c0,.42.07.83.11,1.24v.06c0,.39.08.78.13,1.16l.09.62c0,.16,0,.32.07.48l.09.51c.07.4.14.8.22,1.19l0,.1c.07.37.15.73.24,1.09,0,.14.07.28.1.42s.14.56.22.83a2.45,2.45,0,0,0,.08.29c.11.39.22.78.34,1.16l0,.11c.11.35.23.69.35,1,0,.13.09.27.14.41s.19.53.29.79a2.77,2.77,0,0,1,.1.26c.15.38.3.75.46,1.12a.54.54,0,0,0,0,.11c.14.33.29.66.44,1,.06.14.13.28.2.43s.23.48.35.72c0,.07.07.15.11.23.18.36.37.71.56,1.07l.07.1c.17.32.34.63.53.94l.25.43c.14.24.29.47.44.71l.09.14c.22.35.44.68.67,1l.06.1c.21.3.41.59.63.88s.42.57.62.87a2.51,2.51,0,0,1,.26.31c.26.33.51.65.77,1l.08.09c.23.28.47.55.71.82,0,.07.11.13.17.2l.72.79.09.09c.28.3.57.6.86.89l.09.08c.26.25.52.51.78.75l.18.17.83.75.06.05,1,.81.09.07.86.68.18.14.93.69,0,0c.34.24.68.48,1,.71l.17.12c.24.17.49.32.74.47l.31.19c.34.21.68.42,1,.62h0v-8.06s-12.12-9.1-13.36-24.42H555a13.47,13.47,0,0,0,13.24,11h26.95l6.73,13.48h0l3.37,6.74a3.37,3.37,0,0,0,6.74,0,3.5,3.5,0,0,0-.1-.8,40.59,40.59,0,0,0,8.78-8.53h0a3.71,3.71,0,0,0,.23-.32h0a40.2,40.2,0,0,0,5.87-11.25c.16-.5.32-1,.46-1.51v0c.14-.49.27-1,.4-1.48l0-.14c.24-1,.44-2,.61-3l0-.21q.12-.74.21-1.47s0-.08,0-.13c0-.45.11-.9.14-1.35a2.45,2.45,0,0,1,0-.27c0-.48.07-1,.09-1.45,0-.1,0-.2,0-.3q0-.75,0-1.5C628.86,768.3,628.85,767.88,628.84,767.46Z" transform="translate(-169 -728.2)"/><path d="M341.33,743.81h0a9,9,0,0,0-9-8.81h-12l-9.63,19.27a12,12,0,0,0-8.77-.78,1.8,1.8,0,0,0-1.09,2.53l3.19,6.37a1.81,1.81,0,0,1-1.61,2.61h-2a1.81,1.81,0,0,1-1.61-1l-16.42-32.84a3.89,3.89,0,0,0-3.49-2.16h-9.59l36,72,24.22-48.44h0l.34.1.06,0,.31.08.1,0,.28.06.15,0,.25,0,.19,0,.23,0,.27,0h1l.25,0h.2l.33,0h.1a9,9,0,0,0,7.7-8.91v-.19Z" transform="translate(-169 -728.2)"/><path d="M441.58,757.22H376.83a33,33,0,0,1,62.5-3h3.2a36.08,36.08,0,0,0-69.95,9v6H397a12,12,0,0,0,11.62,9h27a3,3,0,0,0,2.42,2.94,33,33,0,0,1-60.17-2.94h-3.2a36.08,36.08,0,0,0,69.95-9v-9A3,3,0,0,0,441.58,757.22Z" transform="translate(-169 -728.2)"/></svg>