<svg xmlns="http://www.w3.org/2000/svg" viewBox="0 0 783.19 90.69"><path d="M609,510.05c0-.18,0-.35,0-.53s0-.33,0-.49l0-.49c0-.38-.06-.76-.1-1.13v-.06c0-.36-.09-.71-.13-1.07,0-.19-.06-.38-.08-.57s0-.29-.07-.43-.05-.31-.08-.47c-.06-.36-.13-.73-.2-1.09a.29.29,0,0,1,0-.09c-.07-.34-.15-.67-.23-1,0-.12,0-.24-.08-.36l-.21-.79c0-.09,0-.18-.07-.26-.1-.36-.2-.71-.31-1.06a.49.49,0,0,0,0-.11c-.1-.31-.2-.63-.31-.94,0-.14-.09-.27-.14-.4s-.17-.47-.26-.71l-.09-.24c-.14-.34-.27-.68-.42-1l0-.1c-.13-.31-.27-.61-.4-.9l-.19-.39c-.1-.23-.21-.44-.32-.66l-.1-.22-.52-1a.31.31,0,0,1,0-.1l-.49-.85-.23-.4-.39-.63-.1-.15c-.2-.31-.4-.63-.61-.93l-.06-.09-.57-.81-.15-.21-.57-.75-.1-.13-.7-.87-.07-.08c-.21-.26-.43-.51-.65-.76l-.15-.17c-.22-.25-.44-.49-.67-.73a.3.3,0,0,0-.08-.08c-.26-.28-.52-.55-.79-.82l-.07-.07-.73-.69-.16-.15c-.25-.24-.5-.47-.76-.69l-.06-.05c-.28-.25-.58-.5-.87-.74l-.08-.06c-.26-.22-.53-.42-.79-.63l-.17-.13-.85-.63,0,0-.95-.66-.15-.09-.7-.46-.26-.16c-.32-.2-.63-.39-1-.57h0v3.62a33.91,33.91,0,0,1,15.37,26.46,19,19,0,0,1-15.33,8.18h0A18.57,18.57,0,0,1,572,498.86c0-8.13-5.87-16.87-15.28-18.51H544.11a9.24,9.24,0,0,0-6.06,16.12c-.43,1-.82,2-1.16,3h0a36.86,36.86,0,0,0-1.4,5.66v.08c-.09.52-.16,1-.23,1.58a1.33,1.33,0,0,0-.14.87,1.35,1.35,0,0,1,0,.53c0,.45-.06.9-.08,1.35a2.44,2.44,0,0,1,0,.27c0,.46,0,.91,0,1.37s0,.77,0,1.16c0,.17,0,.35,0,.53l0,.49,0,.49c0,.38.06.76.1,1.13v.06c0,.36.08.71.13,1.06,0,.19,0,.38.08.57s0,.29.07.44,0,.31.08.46c.06.37.13.74.2,1.1,0,0,0,.06,0,.09.07.33.15.67.22,1,0,.13.07.25.1.38s.13.51.2.77a2.5,2.5,0,0,0,.07.26c.1.36.2.71.31,1.06l0,.1c.1.32.21.64.32.95,0,.13.09.25.13.38l.27.72.09.24c.13.35.27.69.42,1l0,.1c.13.3.26.6.4.9l.19.4c.1.22.21.44.32.66l.1.21.52,1a.31.31,0,0,1,0,.1c.16.28.32.57.49.85l.23.39.4.66.09.13c.2.31.4.62.61.93l.06.09.57.81c.19.26.39.52.57.79a2.17,2.17,0,0,1,.24.29c.23.3.47.59.71.88l.07.08c.21.26.43.51.65.76l.15.17c.22.25.44.49.67.73l.08.08c.26.28.52.55.79.81l.07.08.73.69.16.15.76.69.05,0,.88.74.08.06.79.63.17.12.85.64,0,0,1,.66.16.1c.22.16.45.29.67.44a2.61,2.61,0,0,1,.28.17l1,.57h0v-7.39s-11.1-8.34-12.24-22.37h.11a12.36,12.36,0,0,0,12.13,10H578.2l6.17,12.34h0l3.08,6.17a3.09,3.09,0,1,0,6.17,0,3.38,3.38,0,0,0-.08-.72,37.22,37.22,0,0,0,8-7.82h0l.21-.29h0a36.68,36.68,0,0,0,5.37-10.31c.15-.46.3-.92.43-1.38v0c.13-.45.25-.9.36-1.36l0-.12c.22-.9.41-1.8.56-2.72l0-.19c.07-.45.14-.89.19-1.35,0,0,0-.07,0-.11,0-.42.09-.83.12-1.24a2,2,0,0,0,0-.25c0-.44.07-.88.09-1.33a2.72,2.72,0,0,1,0-.28c0-.45,0-.91,0-1.37S609.05,510.44,609,510.05Z" transform="translate(-13.38 -476.38)"/><path d="M71.56,523.1" transform="translate(-13.38 -476.38)"/><path d="M77.46,523.1h-.87a2.75,2.75,0,1,0-5.49,0,2.47,2.47,0,0,0,.11.77,27.49,27.49,0,0,1-50-.77H46.36a11,11,0,0,0,11-11h22a33,33,0,0,0-65.95-.41c0,.13,0,.27,0,.41a33,33,0,0,0,59.15,20.06l.08-.06,2.77-3.75a54,54,0,0,0,3.89-5.26Zm-31.1-41.22a30.23,30.23,0,0,1,27,16.54,2.75,2.75,0,0,0-2.22,2.7H18.19A30.24,30.24,0,0,1,46.36,481.88Z" transform="translate(-13.38 -476.38)"/><path d="M283.79,523.1h-.87a2.75,2.75,0,1,0-5.49,0,2.81,2.81,0,0,0,.11.77,27.49,27.49,0,0,1-50-.77h25.19a11,11,0,0,0,11-11h22a33,33,0,0,0-66-.41c0,.13,0,.27,0,.41a33,33,0,0,0,59.15,20.06l.08-.06,2.78-3.75a54.79,54.79,0,0,0,3.88-5.26Zm-31.1-41.22a30.23,30.23,0,0,1,27,16.54,2.75,2.75,0,0,0-2.22,2.7H224.52A30.25,30.25,0,0,1,252.69,481.88Z" transform="translate(-13.38 -476.38)"/><path d="M529.31,523.1h-.87a2.75,2.75,0,1,0-5.5,0,2.81,2.81,0,0,0,.11.77,27.49,27.49,0,0,1-50-.77h25.2a11,11,0,0,0,11-11h22a33,33,0,0,0-66-.41v.41a33,33,0,0,0,59.15,20.06l.08-.06,2.77-3.75a56.22,56.22,0,0,0,3.89-5.26Zm-31.1-41.22a30.21,30.21,0,0,1,26.95,16.54,2.76,2.76,0,0,0-2.22,2.7H470A30.24,30.24,0,0,1,498.21,481.88Z" transform="translate(-13.38 -476.38)"/><path d="M137.26,525.3a6.59,6.59,0,0,0-1.09.09L124.4,513a1.38,1.38,0,0,1,0-1.84l11.77-12.36a7.88,7.88,0,0,0,1.09.09c4.73,0,8.53-4.78,8.23-10.53-.25-4.86-3.5-8.84-7.54-9.23s-7.54,2.73-8.6,7.09l-11.87,10.69a7.43,7.43,0,0,1-5,2h0a7.43,7.43,0,0,1-5-2L95.71,486.25c-1.06-4.36-4.55-7.48-8.6-7.09s-7.29,4.37-7.54,9.23c-.3,5.75,3.5,10.53,8.23,10.53a7.88,7.88,0,0,0,1.09-.09l11.77,12.36a1.38,1.38,0,0,1,0,1.84L88.89,525.39a6.59,6.59,0,0,0-1.09-.09c-4.73,0-8.53,4.78-8.23,10.53.25,4.85,3.5,8.83,7.54,9.22s7.54-2.72,8.6-7.09l11.87-10.68a7.38,7.38,0,0,1,5-2h0a7.38,7.38,0,0,1,5,2L129.35,538c1.06,4.37,4.55,7.49,8.6,7.09s7.29-4.37,7.54-9.22C145.79,530.08,142,525.3,137.26,525.3Z" transform="translate(-13.38 -476.38)"/><path d="M216,511h0v-.07h0c0-.21,0-.42,0-.62h0l0-.34h0c0-.22,0-.44-.05-.66h0v-.07c0-.07,0-.14,0-.2h0l-.06-.58h0l0-.14h0c0-.28-.06-.55-.1-.82h0c0-.09,0-.18,0-.27h0c-.1-.65-.21-1.29-.35-1.92v0h0c-.06-.29-.13-.58-.2-.87h0v0h0c-.08-.32-.17-.64-.25-1h0c-.08-.26-.15-.51-.22-.76h0c-.07-.26-.15-.51-.23-.76h0c0-.05,0-.11-.05-.17h0c-.29-.86-.62-1.7-1-2.53h0l-.39-.87,0,0h0c-.13-.28-.27-.56-.4-.83h0l0-.05h0l-.4-.78h0c-.45-.84-.94-1.65-1.46-2.45h0c-.31-.47-.64-.94-1-1.4h0a33.05,33.05,0,0,0-6.46-6.64h0c-.69-.54-1.41-1.05-2.14-1.53h0c-.36-.24-.73-.48-1.11-.7h0c-.75-.45-1.51-.86-2.29-1.25h0A33.3,33.3,0,0,0,194,481h0l-.12,0h0c-.41-.15-.83-.28-1.25-.41h-.07q-1.22-.36-2.46-.63h0l-.13,0a31,31,0,0,0-4-.59h-.14c-.66-.05-1.32-.09-2-.1h-1.63l-.88,0h0l-.88.05h-.33l-.54.06h0l-.87.1h0l-.87.13h0l-.3.05h0l-.56.1h0l-.86.17h0l-.24.06h0l-.82.19h0l-.82.22h0c-.41.11-.81.24-1.22.37h0l-.07,0h0a32.17,32.17,0,0,0-4.5,1.84h0a2.75,2.75,0,0,0-4.57,2.06,2.59,2.59,0,0,0,.08.63h0l-.71.53-.1.07c-.21.16-.42.32-.62.49l-.08.06a34.15,34.15,0,0,0-4,3.75h0l-.08.1a33.7,33.7,0,0,0-2.87,3.74,21.79,21.79,0,0,0-2.29,4.09c-.25.53-.49,1.07-.71,1.62h0v0h0l0,.07h0c-.1.24-.19.48-.28.72h0v0h0c-.17.45-.33.91-.48,1.37h0l-.06.2h0c-.25.76-.46,1.54-.65,2.33h0v0h0v0h0c0,.2-.09.4-.13.6h0l0,.09v0a.29.29,0,0,1,0,.09h0c0,.18-.07.37-.11.56h0a32.5,32.5,0,0,0-.46,3.43v.05s0,.08,0,.13h0c0,.54-.07,1.08-.09,1.63v.08h0c0,.28,0,.57,0,.86v33.26c0,.24,0,.49,0,.73,0,.06,0,.13,0,.2s0,.34,0,.51,0,.15,0,.23l0,.49a1.5,1.5,0,0,1,0,.22c0,.16,0,.33.05.49s0,.13,0,.19l.06.52,0,.17c0,.18.05.36.07.54l0,.14.09.56a.43.43,0,0,1,0,.11l.12.59,0,.08c0,.21.09.41.14.61v.06c.05.21.1.42.16.63v0a25.26,25.26,0,0,0,1.37,3.92h0a27.45,27.45,0,0,0,8.33,10.69,8.27,8.27,0,0,0,.37-2.46v-.81l0,0a8.25,8.25,0,0,0-5.37-6.9,24.73,24.73,0,0,1-1.3-20l1.51-3a8.43,8.43,0,0,0,1.62-.87h0l.65.78.21.23.48.54.24.25c.16.18.34.35.51.53l.2.21.11.11,0,0,.6.57h0l0,0,.58.53,0,0h0l0,0h0l.61.52h0l0,0,0,0h0l.25.2c.22.18.43.36.66.53h0c4.48,3.82,10.53,6.58,18.65,6.91l.55,0h.13l.91,0,1,0h0l.93,0h0a29.63,29.63,0,0,0,18.3-6.9l.06,0h0c.3-.23.59-.47.88-.71l.08-.07.06,0,.09-.08.62-.54.17-.15.75-.71h0l.12-.11h0l.52-.53h0l.1-.1h0c.24-.24.48-.49.71-.75l.13-.15c.19-.21.38-.42.56-.64l.07-.07.05-.07.06-.07c.29-.35.58-.7.86-1.06h0l.23-.32c.07-.09.14-.17.2-.26h0l.52-.72h0l.12-.17h0c.11-.15.21-.32.32-.48l.08-.12h0l.09-.13h0c.33-.51.65-1,.95-1.55h0l.41-.74h0l.09-.18h0c.11-.2.21-.4.31-.6a1.63,1.63,0,0,0,.11-.23h0c.1-.18.18-.37.27-.55v0h0c.27-.57.52-1.15.76-1.75h0c.14-.34.27-.69.4-1h0a34.1,34.1,0,0,0,1-3.35h0l.27-1.17h0l.18-1h0c0-.26.09-.53.13-.8h0a2.89,2.89,0,0,0,0-.29h0c0-.2.06-.4.08-.61h0c.08-.6.13-1.22.17-1.83h0l0-.34h0v0c0-.2,0-.4,0-.61h0c0-.4,0-.81,0-1.22S216,511.33,216,511ZM199.56,534.1v-44a27.5,27.5,0,0,1,0,44Z" transform="translate(-13.38 -476.38)"/><path d="M323.25,479.13a32.83,32.83,0,0,0-16.48,4.4s0,0,0,0v-4.35s0,0,0,0l-8.23,11h.16a33,33,0,0,0-.36,43.58h0l.2.4h0l8.23,11s0,0,0,0V531.56a8.38,8.38,0,0,0-7.61-8.42l-.64,0h0a2.75,2.75,0,0,0-2.75-2.75,2.78,2.78,0,0,0-1.48.43,31.06,31.06,0,0,1-.2-16.84,29.56,29.56,0,0,1,21.19-21.06,30.61,30.61,0,0,1,21.81,2.32h0c8.72,5.4,8.34,15.48,8.32,15.89h8.95s0,0,0,0A33,33,0,0,0,323.25,479.13Z" transform="translate(-13.38 -476.38)"/><circle cx="358" cy="16.09" r="13.34"/><path d="M380.27,541.38V512.63a17.79,17.79,0,0,0-17.78,0v30.81a17.64,17.64,0,0,0,8.89,2.38A17.82,17.82,0,0,0,379.3,544a1.46,1.46,0,0,0,1,.37,1.48,1.48,0,1,0,0-3Z" transform="translate(-13.38 -476.38)"/><path d="M425.72,476.38a35.86,35.86,0,0,0-31.84,19.35,11,11,0,0,1-1-4.59,12.09,12.09,0,0,1,3.07-7.81c3.16-.73,5.49-2.53,5.84-4.7l.05,0v-.54a3.79,3.79,0,0,0-.41-1.68,23.3,23.3,0,0,0-9.05,7.28h0a14.29,14.29,0,0,0-1.49,2.66h0l-.18.44v0l-.15.42,0,.06c0,.13-.09.26-.13.39a.24.24,0,0,1,0,.08c0,.13-.07.25-.1.38l0,.1c0,.12-.06.24-.08.36l0,.12c0,.11-.05.23-.07.35a.59.59,0,0,1,0,.13c0,.11,0,.23,0,.34s0,.1,0,.15,0,.22,0,.33,0,.1,0,.15,0,.24,0,.35a.66.66,0,0,0,0,.14c0,.16,0,.33,0,.49v.21h0v22.43c0-.16,0-.31,0-.47a35.85,35.85,0,0,0,15,28.11,3.1,3.1,0,0,0-.09.69,3,3,0,1,0,3-3v-3a29.88,29.88,0,0,1,3.86-50.26c5.72,1.55,11.08,18.44,11.08,26.36h6c0-7.92,5.36-24.81,11.08-26.36a29.88,29.88,0,0,1,3.86,50.26v7.15a35.85,35.85,0,0,0-17.92-66.9Z" transform="translate(-13.38 -476.38)"/><path d="M428.68,536.13h0Z" transform="translate(-13.38 -476.38)"/><path d="M428.76,536.12h0Z" transform="translate(-13.38 -476.38)"/><polygon points="415.3 59.74 415.3 59.74 415.3 59.74 415.3 59.74"/><path d="M796.57,534.65a10.29,10.29,0,0,0-10.36-9.86h-9.93V487.22a7.28,7.28,0,0,0-.07-.78,8.6,8.6,0,0,0-11.93-6.62c-7.72,3.27-12.63,9.75-15.06,17.91h3.38a3.38,3.38,0,0,0,3.38,3.39v33.82a10.19,10.19,0,0,0,10.15,10.15h20.29A10.16,10.16,0,0,0,796.57,534.65Z" transform="translate(-13.38 -476.38)"/><path d="M713.49,479.13a33,33,0,0,0-33,33c0,.39,0,.77,0,1.16v.06h0l0,.63h0c0,.12,0,.23,0,.35h0c0,.22,0,.44,0,.66l0,.27h0l.06.57h0V516c0,.27.07.55.11.82h0a2.51,2.51,0,0,0,0,.27h0a32,32,0,0,0,.8,3.8v0h0c.14.51.3,1,.46,1.52h0l.06.18h0c.29.86.61,1.7,1,2.53h0v0c.25.58.52,1.15.8,1.71l0,.07h0l.39.76v0h0c.29.54.6,1.07.92,1.59h0c.17.27.34.54.52.81l0,0h0c.31.48.64,1,1,1.41h0l0,0a33.58,33.58,0,0,0,3.63,4.18h0l0,0h0a33.57,33.57,0,0,0,2.78,2.41h0a32.84,32.84,0,0,0,20.16,6.88v-2.75a30.06,30.06,0,0,1-18.14-6.05l-.64-.49-.1-.08-.54-.44-.1-.09-.56-.48,0,0a30.93,30.93,0,0,1-2.94-3l-.7-.86-.05-.07-.73-1-.16-.24-.52-.75-.2-.31q-.26-.39-.48-.78c-.05-.08-.11-.16-.15-.24-.2-.34-.4-.68-.58-1l-.14-.26c-.14-.26-.27-.53-.41-.8l-.18-.38-.33-.74c-.06-.12-.11-.25-.17-.37a30.3,30.3,0,0,1-2.37-11.76h60.46a30.21,30.21,0,0,1-2.32,11.63A8.24,8.24,0,0,0,730,531.35v13.74l8.24-11a32.9,32.9,0,0,0,5.56-8.91c.08-.21.17-.41.25-.61l.06-.15.24-.61.06-.16c.08-.2.15-.4.22-.6l.06-.18c.07-.2.13-.4.2-.6l.06-.19.18-.59.06-.2c.06-.19.11-.39.16-.58l.06-.22.15-.58c0-.08,0-.16.05-.23s.09-.38.13-.57l.06-.25c0-.19.07-.37.11-.56a2,2,0,0,1,.05-.26l.09-.55c0-.1,0-.19.05-.28s0-.37.07-.55a2.89,2.89,0,0,0,0-.29c0-.18,0-.36.07-.54l0-.3c0-.18,0-.36.05-.54l0-.31,0-.55c0-.1,0-.2,0-.3l0-.6a2.26,2.26,0,0,1,0-.26c0-.29,0-.57,0-.86A33,33,0,0,0,713.49,479.13Zm24.73,19.24H686.55l.45-.83c0-.07.07-.13.1-.19l.39-.68.09-.14.49-.8.09-.12c.14-.22.29-.44.44-.66l.12-.18c.36-.5.73-1,1.11-1.48l.14-.18.5-.6.1-.12.62-.69.12-.13c.17-.19.35-.37.53-.55l.15-.16.66-.65,0,0,.65-.6.18-.16.6-.51.11-.09c.23-.2.47-.39.71-.58l.16-.12.6-.45.18-.13c.25-.18.5-.36.76-.53l.07,0,.7-.45.21-.13.69-.42.11-.06.8-.45.2-.1.66-.34.2-.1c.28-.14.55-.27.84-.39l.12-.06.74-.31.23-.1.78-.3.09,0,.88-.3.23-.08.71-.22.22-.06.9-.25.17,0,.76-.18.26,0,.87-.18h.06l.94-.15.26,0,.76-.1.22,0c.31,0,.63-.07,1-.09h.21l.78,0,.27,0h1a30.21,30.21,0,0,1,26.93,16.49Z" transform="translate(-13.38 -476.38)"/><path d="M671.82,479.13H618a9.11,9.11,0,0,0-9.18,8.74,9,9,0,0,0,9,9.25h9.73a8.21,8.21,0,0,1,8.2,8.21v34a5.49,5.49,0,0,0,5.75,5.75h6.57c3.17,0,5.85-1.93,5.74-5.75v-34a8.22,8.22,0,0,1,8.21-8.21h9.78a3,3,0,1,0,5.37-1.84,8.95,8.95,0,0,0-5.37-16.15Z" transform="translate(-13.38 -476.38)"/></svg>