<svg xmlns="http://www.w3.org/2000/svg" viewBox="0 0 683.03 195.4"><path d="M138.81,518.64a77.72,77.72,0,0,0-77.72,77.71c0,.92,0,1.83,0,2.74v.15h0l.06,1.48h0l.06.82h0c0,.52.07,1,.11,1.55l.06.64h0c0,.46.09.91.14,1.36h0c0,.11,0,.23,0,.34.08.65.16,1.29.25,1.93h0L62,608h0a77.84,77.84,0,0,0,1.9,9l0,.08h0c.33,1.21.69,2.4,1.08,3.59h0c.05.14.09.29.14.43h0q1,3,2.27,6h0l0,.09c.58,1.37,1.21,2.71,1.88,4a1.19,1.19,0,0,0,.08.16h0c.3.61.61,1.2.93,1.8l0,0h0c.69,1.28,1.41,2.53,2.17,3.76h0c.4.65.8,1.3,1.22,1.93l0,.07h0c.73,1.13,1.5,2.23,2.29,3.32h0l.06.07a78,78,0,0,0,8.57,9.84h0l0,0h0a80.67,80.67,0,0,0,6.56,5.68h0a77.36,77.36,0,0,0,47.51,16.21V667.6a71,71,0,0,1-42.75-14.25c-.51-.38-1-.77-1.5-1.16l-.25-.21c-.43-.34-.85-.68-1.26-1l-.24-.2-1.32-1.14-.1-.09a73.63,73.63,0,0,1-6.92-7.1c-.56-.66-1.11-1.34-1.65-2,0-.06-.09-.11-.13-.16Q81.82,639.12,81,638c-.13-.18-.26-.36-.38-.55-.42-.58-.82-1.18-1.22-1.78-.16-.23-.32-.47-.47-.72-.39-.6-.77-1.21-1.15-1.83-.11-.2-.23-.39-.35-.58-.47-.8-.93-1.61-1.37-2.42-.1-.2-.2-.4-.31-.6-.33-.63-.65-1.26-1-1.9-.15-.3-.29-.6-.43-.9-.27-.57-.53-1.15-.79-1.74-.13-.29-.26-.58-.38-.88a70.8,70.8,0,0,1-5.6-27.71H210.05a70.93,70.93,0,0,1-5.47,27.4,19.45,19.45,0,0,0-26.91,17.94v32.38l19.43-25.9a77.57,77.57,0,0,0,13.08-21q.31-.72.6-1.44l.15-.35c.19-.48.37-1,.55-1.43l.15-.39q.27-.7.51-1.41l.15-.42c.16-.46.32-.93.47-1.4.05-.15.1-.3.14-.45.15-.46.29-.93.43-1.39,0-.16.09-.32.14-.48.13-.46.26-.92.38-1.37.05-.18.1-.35.14-.53.12-.44.23-.9.34-1.35,0-.18.09-.37.14-.55.1-.45.2-.89.29-1.34.05-.19.09-.39.13-.59.09-.43.18-.87.26-1.31l.12-.63c.08-.43.15-.86.22-1.3,0-.22.08-.43.11-.65.07-.43.13-.86.18-1.28,0-.23.07-.46.1-.69.06-.43.1-.85.15-1.27,0-.24.06-.48.08-.72l.12-1.26.06-.74.09-1.29c0-.24,0-.48,0-.71l.06-1.41c0-.2,0-.41,0-.61q0-1,0-2A77.72,77.72,0,0,0,138.81,518.64Zm-5.28,6.67.49,0c.61,0,1.22-.08,1.84-.1l.64,0c.77,0,1.54,0,2.31,0A71.23,71.23,0,0,1,202.28,564H75.34c.33-.66.68-1.31,1-2,.08-.15.16-.3.25-.45.3-.53.6-1.07.92-1.59.06-.12.13-.23.2-.35.38-.63.77-1.25,1.16-1.86l.2-.3c.34-.52.69-1,1-1.55l.29-.42q1.26-1.79,2.62-3.5l.33-.41c.38-.48.78-1,1.18-1.42l.23-.28c.48-.55,1-1.09,1.45-1.63l.28-.3c.41-.44.83-.88,1.25-1.31l.36-.37c.51-.52,1-1,1.56-1.54l0,0c.51-.49,1-1,1.55-1.43l.41-.36c.46-.41.93-.82,1.41-1.21a2.75,2.75,0,0,1,.26-.22c.55-.46,1.12-.92,1.69-1.36l.37-.29,1.42-1.06.42-.31c.59-.42,1.18-.84,1.78-1.24l.17-.11c.55-.37,1.1-.72,1.66-1.07l.48-.31c.54-.33,1.08-.66,1.63-1l.25-.15c.63-.36,1.26-.71,1.9-1.05l.47-.25c.51-.27,1-.53,1.55-.79l.47-.24c.65-.32,1.31-.62,2-.92l.3-.13c.57-.26,1.15-.5,1.73-.74l.55-.23,1.84-.71.22-.09q1-.37,2.07-.72l.54-.17c.56-.18,1.12-.36,1.68-.52l.51-.15c.7-.21,1.41-.4,2.12-.58l.4-.1c.59-.15,1.19-.29,1.79-.42l.61-.13c.68-.15,2.15-.43,2.2-.44A64.49,64.49,0,0,1,133.53,525.31Z" transform="translate(-61.09 -480.4)"/><circle cx="496.16" cy="69.67" r="31.43"/><path d="M578.21,665.32V597.59a41.94,41.94,0,0,0-41.91,0v72.6a42,42,0,0,0,39.6,1.24,3.43,3.43,0,0,0,2.31.88,3.5,3.5,0,0,0,0-7Z" transform="translate(-61.09 -480.4)"/><path d="M366.65,627.85a76.68,76.68,0,0,0-32-96.85v7.5a70.27,70.27,0,0,1,26.54,85.88,19.15,19.15,0,0,0-22.7,29.17,70.23,70.23,0,1,1-82.18-113.89,6.18,6.18,0,0,0,1.73.25,6.39,6.39,0,0,0,0-12.77v-6.39l-21.39,28.6A76.61,76.61,0,0,0,343.18,658a19.08,19.08,0,0,0,10.63,3.21c6.17,0,19,.58,19,12.86l.16-32A19.09,19.09,0,0,0,366.65,627.85Z" transform="translate(-61.09 -480.4)"/><path d="M664.73,515.3a79.39,79.39,0,0,0-60,131.34l.48,1L625,674.07V663.45A79.39,79.39,0,1,0,664.73,515.3ZM625,655.68V641.43c0-11.06-9-20.43-20.12-20.28a19.65,19.65,0,0,0-7.37,1.53,72.8,72.8,0,0,1,67.18-100.77V667.46A72.39,72.39,0,0,1,625,655.68Zm66.16,6.81V526.88a72.8,72.8,0,0,1,0,135.61Z" transform="translate(-61.09 -480.4)"/><path d="M522.29,599.32V529c0-.22,0-.44,0-.66,0-.53,0-1.06,0-1.59,0-.15,0-.3,0-.45,0-.38,0-.76,0-1.14,0-.16,0-.33,0-.5,0-.36,0-.72-.07-1.08,0-.16,0-.32,0-.48,0-.36-.06-.73-.1-1.09,0-.15,0-.29-.05-.43,0-.38-.09-.76-.14-1.14,0-.13,0-.25,0-.37-.05-.4-.11-.8-.17-1.19,0-.11,0-.21,0-.31l-.21-1.24c0-.09,0-.17,0-.25-.08-.43-.17-.86-.26-1.29a1.06,1.06,0,0,0,0-.19q-.13-.68-.3-1.35l0-.12c-.11-.47-.23-.93-.35-1.4l0-.05a59.42,59.42,0,0,0-3-8.65h0a61,61,0,0,0-18.39-23.63,18.15,18.15,0,0,0-.83,5.44v1.78c0,.06,0,.37,0,.41A17.88,17.88,0,0,0,510,503a54.58,54.58,0,0,1,2.88,44.29l-3.34,6.67a18,18,0,0,0-3.57,1.91h0c-.48-.58-1-1.15-1.46-1.72l-.45-.51c-.35-.4-.71-.8-1.07-1.19-.17-.18-.34-.37-.52-.55l-1.12-1.17-.46-.46-.24-.24-.05,0-1.48-1.42-1.28-1.16-.05-.05,0,0-.08-.07h0l0,0-1.33-1.15h0l-.05,0-.05,0,0,0c-.18-.16-.37-.3-.55-.45-.48-.4-1-.79-1.45-1.17h0c-9.91-8.42-23.27-14.53-41.22-15.24l-1.2-.06h-.29l-2,0c-.77,0-1.52,0-2.28,0h0c-.7,0-1.38.06-2.06.1h0c-17.55.86-30.66,6.92-40.42,15.23l-.13.11h0c-.66.52-1.3,1-1.94,1.59l-.18.14-.12.1-.22.19-1.36,1.2-.37.33c-.56.51-1.11,1-1.66,1.56h0l-.26.25h0L397.26,551h0l-.22.24h0c-.53.54-1.05,1.1-1.56,1.66l-.3.34-1.23,1.4-.15.17-.12.14-.12.16c-.65.77-1.28,1.56-1.9,2.36h0c-.18.22-.35.46-.52.69s-.3.39-.44.59h0q-.58.78-1.14,1.59h0l-.25.36h0c-.25.35-.48.7-.72,1.06l-.18.28h0l-.18.27h0l0,0c-.73,1.12-1.42,2.27-2.09,3.43h0c-.31.54-.61,1.08-.9,1.63h0l-.21.4h0c-.23.44-.46.88-.68,1.32-.09.17-.17.34-.25.51h0c-.19.4-.39.81-.58,1.22l0,0h0q-.9,1.9-1.68,3.87h0q-.45,1.13-.87,2.28h0a70.81,70.81,0,0,0-2.23,7.39h0c-.21.86-.41,1.72-.59,2.59h0c-.15.71-.29,1.42-.41,2.14h0c-.11.58-.2,1.17-.29,1.77h0l-.09.65h0c-.07.44-.13.88-.18,1.33h0c-.16,1.34-.29,2.69-.38,4.06h0c0,.25,0,.51-.05.76h0v0l-.06,1.34h0c0,.9-.05,1.8-.05,2.71v.86a72,72,0,0,0,72,72h.86q1,0,1.95,0h0c1.31,0,2.6-.11,3.89-.21h0l.74-.06h0l1.19-.12h0c1.29-.13,2.57-.31,3.83-.51h0l.67-.11h0l1.25-.22h0c.64-.12,1.27-.25,1.9-.39h0l.54-.12h0c.61-.13,1.22-.28,1.82-.43h0c.6-.15,1.19-.3,1.78-.47h0c.83-.23,1.66-.48,2.48-.74l.21-.07.15-.05.18-.06q2.44-.79,4.83-1.77l.22-.08.11,0,.26-.11c.63-.26,1.26-.54,1.88-.82l.25-.11.18-.08h0c.69-.32,1.37-.64,2-1a6.07,6.07,0,0,0,10.09-4.55,6.63,6.63,0,0,0-.17-1.41,74.72,74.72,0,0,0,12.1-11.07c.93-1.05,2.12-2.5,3.23-3.9.17-.23.35-.45.52-.67,1-1.34,2-2.56,2.45-3.28a53.84,53.84,0,0,0,4.72-8.06,69.15,69.15,0,0,0,7.5-31.48C522.28,601.49,522.34,600.39,522.29,599.32Zm-6.11,4.49c0,.2,0,.4,0,.6s0,.21,0,.32c0,.35,0,.71-.06,1.07s0,.43,0,.65,0,.36,0,.53,0,.58-.07.86,0,.37-.05.55,0,.52-.08.77-.08.76-.13,1.14l-.09.67c0,.11,0,.21-.05.32l-.12.86-.15.9-.06.33c0,.19-.06.37-.1.55l-.18,1c0,.17-.07.34-.11.51-.3,1.47-.65,2.93-1.06,4.36a1.21,1.21,0,0,1,0,.18,63,63,0,0,1-2.63,7.55v.05c-.29.69-.58,1.37-.89,2,0,.1-.09.19-.13.29-.23.48-.45,1-.69,1.43l-.17.35c-.24.48-.49,1-.74,1.44l-.13.23c-.61,1.14-1.25,2.27-1.93,3.37l0,0c-.32.53-.66,1-1,1.57a1.27,1.27,0,0,0-.13.19c-.32.49-.65,1-1,1.45l-.09.13q-1.68,2.4-3.57,4.65l0,0-1.25,1.44,0,0a67,67,0,0,1-11.79,10.45,5.91,5.91,0,0,0-1.64-.23,6.07,6.07,0,0,0-5.94,4.79l-.14.07c-.53.27-1.06.54-1.6.79l-.45.21-.2.09-1,.46-.51.22h0l-1.12.48-.48.19-.08,0c-.4.17-.81.32-1.21.48h0l-.46.18-.91.32-.71.25-.09,0-1.76.56-.23.07-.2.06-.9.27-.41.12-.6.16c-.39.1-.79.21-1.19.3l-.3.08-.33.08-1.2.27-.61.14-.88.17-.49.1-.2,0-.24,0-1.83.3-.36,0-1.29.18-.19,0-.2,0-.44.05-.78.08-.45.05-.28,0-.42,0-.73,0-.47,0-.7,0c-.43,0-.85,0-1.28.06l-.61,0-1.9,0c-.91,0-1.82,0-2.72-.06h-.3c-1,0-2-.11-3-.2l-.55-.05c-.8-.08-1.6-.17-2.4-.28l-1.21-.17-1-.17h-.07c-.86-.14-1.72-.31-2.56-.48h-.08c-.74-.16-1.48-.33-2.21-.51l-.12,0-.13,0c-.89-.22-1.76-.47-2.64-.72l-.16,0-.44-.14c-.63-.19-1.26-.39-1.88-.6h0c-.77-.27-1.53-.55-2.29-.84l-.24-.09c-.77-.3-1.54-.61-2.3-.93l-.17-.08h0c-1.52-.66-3-1.38-4.48-2.15h0l-.09-.05-.23-.12h0q-2.19-1.17-4.28-2.49h0l-.14-.09h0c-.69-.43-1.36-.89-2-1.35h0l-.24-.16h0c-.67-.47-1.33-.94-2-1.43h0c-.67-.51-1.32-1-2-1.55l-.42-.34q-1-.79-1.89-1.62h0l-.42-.39c-.43-.39-.87-.79-1.29-1.2l-.35-.34c-.44-.42-.86-.84-1.28-1.27l-.32-.33c-.43-.44-.85-.89-1.26-1.34l-.3-.33c-.41-.46-.82-.92-1.22-1.39l-.29-.34c-.39-.47-.78-.94-1.16-1.42-.18-.23-.37-.46-.55-.7-.42-.54-.83-1.09-1.24-1.65l-.19-.27c-.11-.14-.21-.29-.32-.44-.39-.55-.77-1.11-1.14-1.67l-.44-.67c-.37-.57-.72-1.15-1.07-1.73-.11-.18-.23-.36-.33-.54-.42-.7-.82-1.42-1.21-2.14l-.15-.28c-.07-.14-.14-.28-.22-.41-.31-.59-.61-1.18-.9-1.78-.14-.28-.27-.56-.4-.84-.26-.54-.5-1.08-.74-1.63-.12-.28-.25-.55-.36-.83l-.15-.36c-.19-.45-.38-.91-.56-1.37l-.37-1c-.17-.44-.33-.88-.48-1.33-.58-1.67-1.1-3.38-1.55-5.11,0-.06,0-.12,0-.17l-.33-1.34c0-.12,0-.23-.08-.35-.09-.41-.18-.81-.26-1.22,0-.16-.07-.32-.1-.48-.08-.38-.15-.76-.22-1.15,0-.19-.07-.39-.11-.58l-.18-1.07c0-.23-.06-.46-.1-.68s-.09-.67-.14-1l-.09-.77c0-.31-.08-.62-.11-.94s-.06-.57-.08-.86-.06-.58-.08-.87-.05-.64-.07-1,0-.53,0-.79,0-.76,0-1.13l0-.65c0-.59,0-1.19,0-1.78H516.22C516.22,602.5,516.2,603.16,516.18,603.81Z" transform="translate(-61.09 -480.4)"/></svg>